<?xml version="1.0" encoding="utf-8"?>
<!-- Generator: Adobe Illustrator 16.0.3, SVG Export Plug-In . SVG Version: 6.00 Build 0)  -->
<!DOCTYPE svg PUBLIC "-//W3C//DTD SVG 1.1//EN" "http://www.w3.org/Graphics/SVG/1.1/DTD/svg11.dtd">
<svg version="1.1" id="Layer_1" xmlns="http://www.w3.org/2000/svg" xmlns:xlink="http://www.w3.org/1999/xlink" x="0px" y="0px"
	 width="300px" height="63px" viewBox="0 0 300 63" enable-background="new 0 0 300 63" xml:space="preserve">
<g>
	<g>
		<path fill="#0167F3" d="M39.391,52.646c0,3.586,2.845,6.432,6.432,6.432c3.587,0,6.432-2.846,6.432-6.432
			c0-3.588-2.969-6.432-6.432-6.432C42.36,46.214,39.391,49.183,39.391,52.646z M43.597,52.646c0-1.236,0.99-2.226,2.226-2.226
			c1.237,0,2.227,0.989,2.227,2.226c0,1.237-0.989,2.35-2.227,2.35C44.586,54.995,43.597,53.883,43.597,52.646z"/>
		<path fill="#0167F3" d="M54.234,52.646c0,3.586,2.844,6.432,6.432,6.432c3.586,0,6.431-2.846,6.431-6.432
			c0-3.588-2.968-6.432-6.431-6.432C57.203,46.214,54.234,49.183,54.234,52.646z M58.439,52.646c0-1.236,0.99-2.226,2.227-2.226
			c1.236,0,2.226,0.989,2.226,2.226c0,1.237-0.989,2.35-2.226,2.35C59.429,54.995,58.439,53.883,58.439,52.646z"/>
		<path fill="#0167F3" d="M76.003,19.25c-0.496-0.743-1.731-1.237-2.721-1.237h-39.58L30.734,5.149
			c-0.248-1.236-1.361-2.227-2.598-2.227h-7.297c-1.484,0-2.597,0.99-2.597,2.474c0,1.484,0.989,2.597,2.597,2.597h5.319
			l7.297,33.148c0.248,1.237,1.361,2.226,2.598,2.226h31.169c1.732,0,3.216-0.988,3.463-2.72l5.813-17.936
			C77.116,21.229,76.869,19.992,76.003,19.25z M46.441,38.298h-8.04l-1.484-7.174h9.4v7.174H46.441z M46.441,28.65h-9.895
			l-1.113-5.565h11.008V28.65z M57.203,38.298h-8.535v-7.174h8.535V38.298z M57.203,28.65h-8.535v-5.565h8.535V28.65z
			 M66.231,38.298h-6.556v-7.174h8.906L66.231,38.298z M69.323,28.65h-9.771v-5.565h11.626L69.323,28.65z"/>
	</g>
	<g>
		<path fill="#0167F3" d="M30.362,43.122c0,0.123,0,0.246-0.124,0.246h-6.184c-0.989,0-1.854-0.864-1.854-1.854
			c0-0.496,0.247-0.99,0.494-1.236c0.372-0.372,0.742-0.496,1.237-0.496h2.226c0.494,0,0.989-0.246,1.236-0.495
			c0.248-0.246,0.372-0.494,0.495-0.74c0.247-1.237-0.742-2.351-1.979-2.351H12.551c-0.989,0-1.855-0.866-1.855-1.855
			c0-0.495,0.248-0.989,0.495-1.237c0.371-0.371,0.742-0.494,1.237-0.494h6.185c0.494,0,0.989-0.247,1.236-0.495
			s0.371-0.495,0.495-0.742c0.248-1.237-0.742-2.35-1.979-2.35H16.51c-0.99,0-1.855-0.866-1.855-1.855
			c0-0.495,0.247-0.99,0.495-1.237c0.37-0.371,0.742-0.494,1.236-0.494h6.062c0.494,0,0.989-0.247,1.237-0.495
			c0.371-0.371,0.495-0.742,0.495-1.236c0-0.99-0.743-1.732-1.608-1.856h-0.124H22.2H4.512c-0.989,0-1.855-0.866-1.855-1.855
			c0-0.494,0.247-0.989,0.494-1.237c0.372-0.371,0.743-0.495,1.237-0.495H16.51c0.494,0,0.866-0.247,1.113-0.495
			c0.247-0.247,0.372-0.495,0.495-0.742c0.248-1.237-0.742-2.35-1.979-2.35h-3.215c-0.99,0-1.856-0.866-1.856-1.856
			c0-0.495,0.248-0.989,0.495-1.236c0.371-0.372,0.742-0.495,1.236-0.495h10.143c0.125,0,0.125,0,0.125,0.124L30.362,43.122z"/>
		<path fill="#0167F3" d="M20.962,41.514c0,0.495-0.248,0.99-0.495,1.237c-0.371,0.371-0.742,0.494-1.237,0.494h-3.834
			c-0.99,0-1.855-0.741-1.855-1.855c0-0.495,0.248-0.99,0.495-1.236c0.371-0.372,0.742-0.495,1.237-0.495h3.834
			C20.22,39.781,20.962,40.648,20.962,41.514z"/>
		<path fill="#0167F3" d="M12.923,27.166c0,0.495-0.248,0.99-0.495,1.237c-0.248,0.371-0.742,0.494-1.237,0.494H7.48
			c-0.866,0.125-1.732-0.741-1.732-1.731c0-0.495,0.248-0.99,0.495-1.237c0.372-0.371,0.743-0.494,1.237-0.494h3.71
			C12.18,25.435,12.923,26.3,12.923,27.166z"/>
	</g>
</g>
<g>
	<path fill="#0167F3" d="M90.268,42.633v-6.469c1.122,0.984,2.341,1.722,3.657,2.214c1.316,0.491,2.645,0.737,3.986,0.737
		c0.787,0,1.474-0.074,2.061-0.223c0.586-0.147,1.077-0.354,1.47-0.616s0.687-0.572,0.88-0.93c0.194-0.357,0.291-0.744,0.291-1.162
		c0-0.566-0.155-1.071-0.464-1.517c-0.31-0.444-0.732-0.855-1.268-1.232c-0.536-0.377-1.17-0.741-1.906-1.092
		s-1.529-0.707-2.38-1.071c-2.167-0.943-3.783-2.095-4.847-3.457c-1.064-1.361-1.596-3.005-1.596-4.932
		c0-1.509,0.29-2.806,0.871-3.891c0.581-1.084,1.371-1.977,2.371-2.678c1-0.7,2.157-1.216,3.473-1.546s2.709-0.496,4.18-0.496
		c1.444,0,2.725,0.091,3.841,0.273c1.116,0.182,2.145,0.462,3.086,0.839v6.044c-0.464-0.337-0.971-0.633-1.519-0.89
		c-0.548-0.256-1.112-0.468-1.693-0.637c-0.581-0.168-1.158-0.293-1.732-0.374c-0.574-0.081-1.119-0.121-1.635-0.121
		c-0.709,0-1.354,0.071-1.935,0.212s-1.071,0.34-1.47,0.596c-0.4,0.256-0.71,0.563-0.929,0.92s-0.329,0.758-0.329,1.203
		c0,0.485,0.122,0.919,0.368,1.304c0.245,0.384,0.593,0.748,1.045,1.091c0.451,0.344,1,0.681,1.645,1.011
		c0.645,0.331,1.374,0.67,2.187,1.021c1.109,0.485,2.106,1,2.99,1.546c0.883,0.546,1.641,1.163,2.273,1.85
		c0.632,0.688,1.116,1.472,1.451,2.355s0.503,1.91,0.503,3.083c0,1.616-0.294,2.975-0.88,4.072c-0.587,1.099-1.384,1.988-2.39,2.668
		c-1.006,0.681-2.177,1.17-3.512,1.466c-1.335,0.296-2.745,0.444-4.228,0.444c-1.522,0-2.97-0.135-4.344-0.404
		C92.464,43.576,91.274,43.172,90.268,42.633z"/>
	<path fill="#0167F3" d="M132.18,43.744h-6.095V31.979c0-3.032-1.058-4.547-3.173-4.547c-1.084,0-1.961,0.424-2.632,1.273
		c-0.671,0.849-1.006,1.927-1.006,3.234v11.805h-6.114V13.101h6.114v13.018h0.078c1.496-2.385,3.528-3.578,6.095-3.578
		c4.489,0,6.734,2.83,6.734,8.49V43.744z"/>
	<path fill="#0167F3" d="M146.46,44.249c-3.303,0-5.899-0.967-7.789-2.9c-1.89-1.934-2.835-4.558-2.835-7.873
		c0-3.422,0.98-6.101,2.941-8.035c1.96-1.934,4.612-2.9,7.953-2.9c3.29,0,5.87,0.967,7.74,2.9c1.871,1.934,2.807,4.491,2.807,7.671
		c0,3.436-0.965,6.151-2.894,8.146S149.814,44.249,146.46,44.249z M146.615,27.432c-1.445,0-2.567,0.519-3.367,1.556
		c-0.8,1.038-1.2,2.507-1.2,4.406c0,3.976,1.535,5.963,4.605,5.963c2.928,0,4.392-2.041,4.392-6.124
		C151.046,29.366,149.569,27.432,146.615,27.432z"/>
	<path fill="#0167F3" d="M167.436,41.339h-0.077v11.926h-6.115V23.046h6.115v3.113h0.077c1.509-2.412,3.631-3.618,6.366-3.618
		c2.566,0,4.55,0.919,5.95,2.759c1.399,1.839,2.1,4.343,2.1,7.509c0,3.45-0.816,6.219-2.448,8.308s-3.802,3.133-6.511,3.133
		C170.506,44.249,168.687,43.279,167.436,41.339z M167.262,32.85v1.657c0,1.429,0.36,2.594,1.083,3.497
		c0.723,0.902,1.671,1.354,2.845,1.354c1.394,0,2.474-0.563,3.241-1.688s1.151-2.719,1.151-4.78c0-3.639-1.354-5.458-4.063-5.458
		c-1.252,0-2.273,0.495-3.067,1.485C167.658,29.908,167.262,31.219,167.262,32.85z"/>
	<path fill="#0167F3" d="M203.621,35.214h-12.926c0.206,3.006,2.019,4.508,5.437,4.508c2.181,0,4.096-0.539,5.747-1.617v4.608
		c-1.832,1.024-4.212,1.536-7.14,1.536c-3.199,0-5.683-0.926-7.45-2.779c-1.768-1.853-2.65-4.437-2.65-7.751
		c0-3.437,0.954-6.159,2.863-8.167s4.257-3.012,7.044-3.012c2.889,0,5.124,0.896,6.704,2.688c1.58,1.792,2.371,4.225,2.371,7.297
		V35.214z M197.951,31.293c0-2.965-1.148-4.447-3.444-4.447c-0.98,0-1.828,0.425-2.545,1.273c-0.716,0.849-1.151,1.907-1.306,3.174
		H197.951z"/>
	<path fill="#0167F3" d="M220.184,28.807c-0.735-0.417-1.593-0.627-2.573-0.627c-1.329,0-2.367,0.509-3.115,1.526
		s-1.122,2.402-1.122,4.153v9.885h-6.115V23.046h6.115v3.84h0.077c0.968-2.803,2.709-4.205,5.225-4.205
		c0.645,0,1.147,0.081,1.509,0.243V28.807z"/>
	<path d="M243.521,42.713c-2.025,1.024-4.67,1.536-7.934,1.536c-4.257,0-7.604-1.307-10.043-3.921
		c-2.438-2.614-3.657-6.098-3.657-10.45c0-4.636,1.371-8.396,4.112-11.279c2.741-2.883,6.298-4.326,10.671-4.326
		c2.71,0,4.993,0.357,6.851,1.071v6.287c-1.857-1.159-3.974-1.738-6.347-1.738c-2.606,0-4.709,0.856-6.309,2.567
		c-1.6,1.711-2.399,4.029-2.399,6.954c0,2.803,0.755,5.036,2.264,6.7c1.51,1.665,3.542,2.497,6.096,2.497
		c2.438,0,4.67-0.62,6.695-1.86V42.713z"/>
	<path d="M264.244,43.744h-5.785v-2.972h-0.078c-1.328,2.318-3.296,3.477-5.901,3.477c-1.922,0-3.435-0.568-4.537-1.708
		c-1.104-1.138-1.655-2.657-1.655-4.558c0-4.016,2.277-6.333,6.831-6.953l5.379-0.748c0-2.264-1.174-3.396-3.521-3.396
		c-2.36,0-4.605,0.734-6.733,2.203v-4.811c0.852-0.458,2.015-0.862,3.492-1.213c1.478-0.35,2.822-0.525,4.034-0.525
		c5.65,0,8.476,2.944,8.476,8.833V43.744z M258.497,35.335V33.94l-3.599,0.485c-1.987,0.27-2.98,1.206-2.98,2.81
		c0,0.728,0.242,1.324,0.726,1.789c0.484,0.465,1.139,0.697,1.965,0.697c1.147,0,2.083-0.414,2.806-1.243
		C258.136,37.649,258.497,36.603,258.497,35.335z"/>
	<path d="M282.007,28.807c-0.735-0.417-1.593-0.627-2.573-0.627c-1.329,0-2.367,0.509-3.115,1.526s-1.122,2.402-1.122,4.153v9.885
		h-6.115V23.046h6.115v3.84h0.077c0.968-2.803,2.709-4.205,5.225-4.205c0.645,0,1.147,0.081,1.509,0.243V28.807z"/>
	<path d="M296.829,43.502c-0.902,0.498-2.264,0.747-4.082,0.747c-4.31,0-6.463-2.337-6.463-7.014v-9.48h-3.213v-4.709h3.213v-4.467
		l6.095-1.819v6.287h4.45v4.709h-4.45v8.369c0,2.156,0.819,3.233,2.458,3.233c0.645,0,1.309-0.194,1.992-0.586V43.502z"/>
</g>
</svg>
